Coordinates
version=1
nRows=65
nColumns=12
inDegrees=yes

Units are S.I. units (second, meters, Newtons, ...)
Angles are in degrees

endheader
time	SC_y	SC_z	SC_x	AC_y	AC_z	AC_x	GH_y	GH_z	GH_yy	EL_x	PS_y
       0.0              -11.15           30.5          69.38          66.07          -13.1         -4.592         -130.3          18.75         -79.59          11.48          79.68
  0.001791              -11.15           30.5          69.38          66.07          -13.1         -4.591         -130.3          18.75         -79.59          11.49          79.69
  0.003582              -11.15           30.5          69.38          66.07          -13.1          -4.59         -130.2          18.75         -79.59          11.49          79.69
  0.005373              -11.15           30.5          69.38          66.07          -13.1         -4.589         -130.2          18.75         -79.59           11.5          79.69
  0.007164              -11.15           30.5          69.38          66.07         -13.09         -4.587         -130.1          18.75         -79.59          11.51           79.7
  0.008956              -11.16           30.5          69.38          66.06         -13.09         -4.586         -130.1          18.75         -79.59          11.51           79.7
   0.01075              -11.16          30.51          69.38          66.06         -13.09         -4.585         -130.0          18.75         -79.59          11.52          79.71
   0.01254              -11.16          30.51          69.38          66.06         -13.08         -4.583         -130.0          18.75         -79.59          11.53          79.71
   0.01433              -11.16          30.51          69.38          66.06         -13.08         -4.582         -129.9          18.75         -79.59          11.54          79.72
   0.01612              -11.16          30.51          69.37          66.06         -13.08          -4.58         -129.8          18.75         -79.59          11.55          79.72
   0.01791              -11.17          30.51          69.37          66.06         -13.07         -4.578         -129.7          18.75         -79.59          11.56          79.73
    0.0197              -11.17          30.51          69.37          66.06         -13.07         -4.576         -129.7          18.75         -79.59          11.57          79.74
   0.02149              -11.17          30.51          69.37          66.06         -13.06         -4.574         -129.6          18.76         -79.58          11.58          79.74
   0.02328              -11.18          30.51          69.37          66.05         -13.06         -4.572         -129.5          18.76         -79.58          11.59          79.75
   0.02508              -11.18          30.51          69.37          66.05         -13.05         -4.569         -129.4          18.76         -79.58           11.6          79.76
   0.02687              -11.18          30.51          69.37          66.05         -13.04         -4.567         -129.3          18.76         -79.58          11.62          79.77
   0.02866              -11.19          30.51          69.37          66.05         -13.04         -4.564         -129.1          18.76         -79.58          11.63          79.78
   0.03045              -11.19          30.51          69.36          66.05         -13.03         -4.561         -129.0          18.76         -79.58          11.65          79.79
   0.03224               -11.2          30.51          69.36          66.04         -13.02         -4.557         -128.8          18.76         -79.58          11.67           79.8
   0.03403               -11.2          30.52          69.36          66.04         -13.01         -4.553         -128.7          18.76         -79.58          11.69          79.81
   0.03582              -11.21          30.52          69.36          66.04          -13.0         -4.549         -128.5          18.76         -79.57          11.71          79.82
   0.03761              -11.22          30.52          69.36          66.03         -12.99         -4.545         -128.3          18.76         -79.57          11.73          79.84
    0.0394              -11.22          30.52          69.35          66.03         -12.98          -4.54         -128.1          18.76         -79.57          11.76          79.85
    0.0412              -11.23          30.52          69.35          66.02         -12.97         -4.534         -127.9          18.76         -79.57          11.79          79.87
   0.04299              -11.24          30.53          69.35          66.02         -12.95         -4.528         -127.6          18.77         -79.56          11.82          79.89
   0.04478              -11.25          30.53          69.34          66.01         -12.94         -4.521         -127.3          18.77         -79.56          11.86          79.92
   0.04657              -11.26          30.53          69.34          66.01         -12.92         -4.513         -127.0          18.77         -79.56           11.9          79.94
   0.04836              -11.28          30.53          69.34           66.0          -12.9         -4.504         -126.6          18.77         -79.55          11.95          79.97
   0.05015              -11.29          30.54          69.33          65.99         -12.87         -4.495         -126.2          18.77         -79.55           12.0           80.0
   0.05194              -11.31          30.54          69.33          65.99         -12.85         -4.483         -125.7          18.78         -79.54          12.06          80.04
   0.05373              -11.33          30.54          69.32          65.98         -12.82          -4.47         -125.1          18.78         -79.54          12.12          80.08
   0.05552              -11.35          30.55          69.31          65.97         -12.78         -4.456         -124.5          18.78         -79.53           12.2          80.13
   0.05732              -11.37          30.56           69.3          65.95         -12.74         -4.439         -123.8          18.79         -79.52          12.29          80.18
   0.05911               -11.4          30.56          69.29          65.94          -12.7         -4.419         -122.9          18.79         -79.52           12.4          80.25
    0.0609              -11.44          30.57          69.28          65.92         -12.64         -4.396         -121.9           18.8         -79.51          12.52          80.32
   0.06269              -11.48          30.58          69.27           65.9         -12.58         -4.369         -120.8           18.8         -79.49          12.66          80.41
   0.06448              -11.53          30.59          69.25          65.87          -12.5         -4.336         -119.4          18.81         -79.48          12.83          80.52
   0.06627              -11.58           30.6          69.23          65.85         -12.41         -4.298         -117.7          18.82         -79.46          13.04          80.64
   0.06806              -11.65          30.62          69.21          65.81          -12.3         -4.251         -115.7          18.83         -79.44          13.28           80.8
   0.06985              -11.74          30.64          69.18          65.77         -12.16         -4.194         -113.3          18.84         -79.42          13.59          80.98
   0.07164              -11.84          30.67          69.14          65.71         -11.99         -4.123         -110.2          18.86         -79.39          13.96          81.21
   0.07344              -11.97           30.7           69.1          65.65         -11.79         -4.035         -106.5          18.88         -79.35          14.42           81.5
   0.07523              -12.14          30.73          69.04          65.56         -11.52         -3.924         -101.7          18.91          -79.3          15.01          81.86
   0.07702              -12.35          30.78          68.97          65.45         -11.19         -3.783         -95.65          18.94         -79.24          15.76          82.32
   0.07881              -12.61          30.85          68.88          65.32         -10.76         -3.602         -87.91          18.98         -79.16          16.71          82.91
    0.0806              -12.96          30.93          68.76          65.14         -10.21          -3.37         -77.98          19.03         -79.05          17.93          83.66
   0.08239              -13.39          31.03          68.61          64.92         -9.512         -3.074         -65.29           19.1         -78.92           19.5          84.63
   0.08418              -13.95          31.16          68.42          64.63         -8.631         -2.702         -49.34          19.19         -78.76          21.46          85.84
   0.08597              -14.62          31.31          68.19          64.29         -7.557         -2.248         -29.89          19.29         -78.56          23.86          87.32
   0.08777               -15.4           31.5          67.92          63.89         -6.312         -1.722         -7.357          19.41         -78.33          26.63          89.03
   0.08956              -16.24          31.69          67.63          63.46         -4.964         -1.152          17.05          19.54         -78.08          29.64          90.89
   0.09135              -17.08          31.89          67.34          63.03         -3.617        -0.5827          41.45          19.68         -77.82          32.64          92.74
   0.09314              -17.86          32.07          67.07          62.63         -2.372       -0.05673          63.98           19.8         -77.59          35.42          94.45
   0.09493              -18.53          32.23          66.84          62.28         -1.298         0.3971          83.43           19.9         -77.39          37.82          95.93
   0.09672              -19.08          32.36          66.65           62.0        -0.4169         0.7694          99.38          19.99         -77.23          39.78          97.14
   0.09851              -19.52          32.46           66.5          61.77         0.2839          1.066          112.1          20.05          -77.1          41.34          98.11
    0.1003              -19.87          32.54          66.38           61.6         0.8325          1.297          122.0          20.11          -77.0          42.57          98.86
    0.1021              -20.13           32.6          66.29          61.46           1.26          1.478          129.7          20.15         -76.92          43.52          99.45
    0.1039              -20.34          32.65          66.22          61.35          1.594          1.619          135.8          20.18         -76.85          44.27          99.91
    0.1057              -20.51          32.69          66.16          61.27          1.857           1.73          140.5          20.21          -76.8          44.85          100.3
    0.1075              -20.64          32.72          66.12           61.2          2.065          1.818          144.3          20.23         -76.77          45.32          100.6
    0.1093              -20.74          32.75          66.08          61.15          2.233          1.889          147.4          20.24         -76.73          45.69          100.8
     0.111              -20.83          32.77          66.05          61.11          2.368          1.946          149.8          20.26         -76.71          45.99          101.0
    0.1128               -20.9          32.78          66.03          61.07          2.479          1.993          151.8          20.27         -76.69          46.24          101.1
    0.1146              -20.95           32.8          66.01          61.04          2.571          2.032          153.5          20.28         -76.67          46.45          101.3
